<?xml version="1.0" encoding="UTF-8" standalone="no"?>
<!DOCTYPE svg PUBLIC "-//W3C//DTD SVG 1.1//EN"
 "http://www.w3.org/Graphics/SVG/1.1/DTD/svg11.dtd">
<!-- Generated by graphviz version 14.1.3 (20260303.0454)
 -->
<!-- Title: GVmap Pages: 1 -->
<svg width="678pt" height="302pt"
 viewBox="0.00 0.00 678.00 302.00" xmlns="http://www.w3.org/2000/svg" xmlns:xlink="http://www.w3.org/1999/xlink">
<g id="graph0" class="graph" transform="scale(1 1) rotate(0) translate(4 298.25)">
<title>GVmap</title>
<polygon fill="white" stroke="none" points="-4,4 -4,-298.25 673.5,-298.25 673.5,4 -4,4"/>
<text xml:space="preserve" text-anchor="middle" x="334.75" y="-7.2" font-family="Times,serif" font-size="14.00">execution data model</text>
<g id="clust1" class="cluster">
<title>cluster_packages</title>
<polygon fill="#8dd3c7" stroke="black" points="8,-191.5 8,-268 78,-268 78,-191.5 8,-191.5"/>
<text xml:space="preserve" text-anchor="middle" x="43" y="-250.7" font-family="Times,serif" font-size="14.00">Model</text>
</g>
<!-- job -->
<g id="node1" class="node">
<title>job</title>
<g id="a_node1"><a xlink:href="../execution/job" xlink:title="job">
<polygon fill="#ffffb3" stroke="black" points="70,-235.5 28,-235.5 28,-239.5 16,-239.5 16,-199.5 70,-199.5 70,-235.5"/>
<polyline fill="none" stroke="black" points="16,-235.5 28,-235.5"/>
<text xml:space="preserve" text-anchor="middle" x="43" y="-212.45" font-family="Times,serif" font-size="14.00">job</text>
</a>
</g>
</g>
<!-- execution:PhysicalLocation -->
<g id="node2" class="node">
<title>execution:PhysicalLocation</title>
<g id="a_node2"><a xlink:href="../execution/PhysicalLocation" xlink:title="{PhysicalLocation}">
<polygon fill="#8dd3c7" stroke="black" points="120.25,-57 120.25,-93 191.75,-93 191.75,-57 120.25,-57"/>
<text xml:space="preserve" text-anchor="middle" x="156" y="-72.4" font-family="Times,serif" font-size="8.00">PhysicalLocation</text>
</a>
</g>
</g>
<!-- execution:ExecutionNode -->
<g id="node3" class="node">
<title>execution:ExecutionNode</title>
<g id="a_node3"><a xlink:href="../execution/ExecutionNode" xlink:title="{ExecutionNode|+resourcesServiceUrl : ivoa:anyURI\l+executionServiceUrl : ivoa:anyURI\l}">
<polygon fill="#8dd3c7" stroke="black" points="88.38,-194.88 88.38,-240.12 223.62,-240.12 223.62,-194.88 88.38,-194.88"/>
<text xml:space="preserve" text-anchor="middle" x="156" y="-228.53" font-family="Times,serif" font-size="8.00">ExecutionNode</text>
<polyline fill="none" stroke="black" points="88.38,-222.38 223.62,-222.38"/>
<text xml:space="preserve" text-anchor="start" x="96.38" y="-210.78" font-family="Times,serif" font-size="8.00">+resourcesServiceUrl : ivoa:anyURI</text>
<text xml:space="preserve" text-anchor="start" x="96.38" y="-201.03" font-family="Times,serif" font-size="8.00">+executionServiceUrl : ivoa:anyURI</text>
</a>
</g>
</g>
<!-- execution:ExecutionNode&#45;&gt;execution:PhysicalLocation -->
<g id="edge1" class="edge">
<title>execution:ExecutionNode&#45;&gt;execution:PhysicalLocation</title>
<path fill="none" stroke="blue" d="M156,-181.7C156,-157.91 156,-126.76 156,-104.45"/>
<polygon fill="blue" stroke="blue" points="156,-181.65 160,-187.65 156,-193.65 152,-187.65 156,-181.65"/>
<polygon fill="blue" stroke="blue" points="156,-94.59 160.5,-104.59 156,-98.37 156,-104.59 156,-104.59 156,-104.59 156,-98.37 151.5,-104.59 156,-94.59"/>
<text xml:space="preserve" text-anchor="middle" x="172.88" y="-113.25" font-family="Times,serif" font-size="10.00">location</text>
<text xml:space="preserve" text-anchor="middle" x="153.38" y="-95.12" font-family="Times,serif" font-size="10.00">1</text>
</g>
<!-- execution:DataResource -->
<g id="node4" class="node">
<title>execution:DataResource</title>
<g id="a_node4"><a xlink:href="../execution/DataResource" xlink:title="{DataResource}">
<polygon fill="#8dd3c7" stroke="black" points="242.12,-199.5 242.12,-235.5 303.88,-235.5 303.88,-199.5 242.12,-199.5"/>
<text xml:space="preserve" text-anchor="middle" x="273" y="-214.9" font-family="Times,serif" font-size="8.00">DataResource</text>
</a>
</g>
</g>
<!-- execution:WorkLoad -->
<g id="node5" class="node">
<title>execution:WorkLoad</title>
<g id="a_node5"><a xlink:href="../execution/WorkLoad" xlink:title="{WorkLoad}">
<polygon fill="#8dd3c7" stroke="black" points="322,-199.5 322,-235.5 376,-235.5 376,-199.5 322,-199.5"/>
<text xml:space="preserve" text-anchor="middle" x="348.75" y="-214.9" font-family="Times,serif" font-size="8.00">WorkLoad</text>
</a>
</g>
</g>
<!-- execution:PerformanceMetric -->
<g id="node6" class="node">
<title>execution:PerformanceMetric</title>
<g id="a_node6"><a xlink:href="../execution/PerformanceMetric" xlink:title="{PerformanceMetric}">
<polygon fill="#8dd3c7" stroke="black" points="394.12,-199.5 394.12,-235.5 473.88,-235.5 473.88,-199.5 394.12,-199.5"/>
<text xml:space="preserve" text-anchor="middle" x="434" y="-214.9" font-family="Times,serif" font-size="8.00">PerformanceMetric</text>
</a>
</g>
</g>
<!-- execution:PerformanceProfile -->
<g id="node7" class="node">
<title>execution:PerformanceProfile</title>
<g id="a_node7"><a xlink:href="../execution/PerformanceProfile" xlink:title="{PerformanceProfile}">
<polygon fill="#8dd3c7" stroke="black" points="491.75,-199.5 491.75,-235.5 572.25,-235.5 572.25,-199.5 491.75,-199.5"/>
<text xml:space="preserve" text-anchor="middle" x="532" y="-214.9" font-family="Times,serif" font-size="8.00">PerformanceProfile</text>
</a>
</g>
</g>
<!-- execution:job.ExecutionPhase -->
<g id="node8" class="node">
<title>execution:job.ExecutionPhase</title>
<g id="a_node8"><a xlink:href="../execution/job.ExecutionPhase" xlink:title="{&amp;lt;&amp;lt;enumeration&amp;gt;&amp;gt;\njob/ExecutionPhase|+PENDING\l+QUEUED\l+PREPARING\l+EXECUTING\l+FINALIZING\l+COMPLETED\l+ERROR\l+UNKNOWN\l+HELD\l+SUSPENDED\l+ABORTED\l+ARCHIVED\l}">
<polygon fill="#ffffb3" stroke="black" points="590.5,-141.25 590.5,-293.75 669.5,-293.75 669.5,-141.25 590.5,-141.25"/>
<text xml:space="preserve" text-anchor="middle" x="630" y="-282.15" font-family="Times,serif" font-size="8.00">&lt;&lt;enumeration&gt;&gt;</text>
<text xml:space="preserve" text-anchor="middle" x="630" y="-272.4" font-family="Times,serif" font-size="8.00">job/ExecutionPhase</text>
<polyline fill="none" stroke="black" points="590.5,-266.25 669.5,-266.25"/>
<text xml:space="preserve" text-anchor="start" x="598.5" y="-254.65" font-family="Times,serif" font-size="8.00">+PENDING</text>
<text xml:space="preserve" text-anchor="start" x="598.5" y="-244.9" font-family="Times,serif" font-size="8.00">+QUEUED</text>
<text xml:space="preserve" text-anchor="start" x="598.5" y="-235.15" font-family="Times,serif" font-size="8.00">+PREPARING</text>
<text xml:space="preserve" text-anchor="start" x="598.5" y="-225.4" font-family="Times,serif" font-size="8.00">+EXECUTING</text>
<text xml:space="preserve" text-anchor="start" x="598.5" y="-215.65" font-family="Times,serif" font-size="8.00">+FINALIZING</text>
<text xml:space="preserve" text-anchor="start" x="598.5" y="-205.9" font-family="Times,serif" font-size="8.00">+COMPLETED</text>
<text xml:space="preserve" text-anchor="start" x="598.5" y="-196.15" font-family="Times,serif" font-size="8.00">+ERROR</text>
<text xml:space="preserve" text-anchor="start" x="598.5" y="-186.4" font-family="Times,serif" font-size="8.00">+UNKNOWN</text>
<text xml:space="preserve" text-anchor="start" x="598.5" y="-176.65" font-family="Times,serif" font-size="8.00">+HELD</text>
<text xml:space="preserve" text-anchor="start" x="598.5" y="-166.9" font-family="Times,serif" font-size="8.00">+SUSPENDED</text>
<text xml:space="preserve" text-anchor="start" x="598.5" y="-157.15" font-family="Times,serif" font-size="8.00">+ABORTED</text>
<text xml:space="preserve" text-anchor="start" x="598.5" y="-147.4" font-family="Times,serif" font-size="8.00">+ARCHIVED</text>
</a>
</g>
</g>
</g>
</svg>
