<?xml version="1.0" encoding="UTF-8" standalone="no"?>
<!DOCTYPE svg PUBLIC "-//W3C//DTD SVG 1.1//EN"
 "http://www.w3.org/Graphics/SVG/1.1/DTD/svg11.dtd">
<!-- Generated by graphviz version 14.1.3 (20260303.0454)
 -->
<!-- Title: GVmap Pages: 1 -->
<svg width="375pt" height="279pt"
 viewBox="0.00 0.00 375.00 279.00" xmlns="http://www.w3.org/2000/svg" xmlns:xlink="http://www.w3.org/1999/xlink">
<g id="graph0" class="graph" transform="scale(1 1) rotate(0) translate(4 274.75)">
<title>GVmap</title>
<polygon fill="white" stroke="none" points="-4,4 -4,-274.75 371.38,-274.75 371.38,4 -4,4"/>
<text xml:space="preserve" text-anchor="middle" x="183.69" y="-7.2" font-family="Times,serif" font-size="14.00">pdl data model</text>
<!-- pdl:BaseParameterType -->
<g id="node1" class="node">
<title>pdl:BaseParameterType</title>
<g id="a_node1"><a xlink:href="../pdl/BaseParameterType" xlink:title="{&amp;lt;&amp;lt;datatype&amp;gt;&amp;gt;\nBaseParameterType}">
<polygon fill="#8dd3c7" stroke="black" points="0,-234.25 0,-270.25 81.25,-270.25 81.25,-234.25 0,-234.25"/>
<text xml:space="preserve" text-anchor="middle" x="40.62" y="-254.65" font-family="Times,serif" font-size="8.00">&lt;&lt;datatype&gt;&gt;</text>
<text xml:space="preserve" text-anchor="middle" x="40.62" y="-244.9" font-family="Times,serif" font-size="8.00">BaseParameterType</text>
</a>
</g>
</g>
<!-- pdl:ParameterSemantics -->
<g id="node2" class="node">
<title>pdl:ParameterSemantics</title>
<g id="a_node2"><a xlink:href="../pdl/ParameterSemantics" xlink:title="{&amp;lt;&amp;lt;datatype&amp;gt;&amp;gt;\nParameterSemantics}">
<polygon fill="#8dd3c7" stroke="black" points="99.25,-234.25 99.25,-270.25 182,-270.25 182,-234.25 99.25,-234.25"/>
<text xml:space="preserve" text-anchor="middle" x="140.62" y="-254.65" font-family="Times,serif" font-size="8.00">&lt;&lt;datatype&gt;&gt;</text>
<text xml:space="preserve" text-anchor="middle" x="140.62" y="-244.9" font-family="Times,serif" font-size="8.00">ParameterSemantics</text>
</a>
</g>
</g>
<!-- pdl:ParameterOrGroup -->
<g id="node3" class="node">
<title>pdl:ParameterOrGroup</title>
<g id="a_node3"><a xlink:href="../pdl/ParameterOrGroup" xlink:title="{ParameterOrGroup|+name : ivoa:string\l}">
<polygon fill="#8dd3c7" stroke="black" points="192.12,-57 192.12,-93 271.12,-93 271.12,-57 192.12,-57"/>
<text xml:space="preserve" text-anchor="middle" x="231.62" y="-81.4" font-family="Times,serif" font-size="8.00">ParameterOrGroup</text>
<polyline fill="none" stroke="black" points="192.12,-75.25 271.12,-75.25"/>
<text xml:space="preserve" text-anchor="start" x="200.12" y="-63.65" font-family="Times,serif" font-size="8.00">+name : ivoa:string</text>
</a>
</g>
</g>
<!-- pdl:ParameterDefinition -->
<g id="node4" class="node">
<title>pdl:ParameterDefinition</title>
<g id="a_node4"><a xlink:href="../pdl/ParameterDefinition" xlink:title="{ParameterDefinition|+description : ivoa:string\l+kind : pdl:BaseParameterType\l+semantics : pdl:ParameterSemantics\l}">
<polygon fill="#8dd3c7" stroke="black" points="229.88,-131 229.88,-186 367.38,-186 367.38,-131 229.88,-131"/>
<text xml:space="preserve" text-anchor="middle" x="298.62" y="-174.4" font-family="Times,serif" font-size="8.00">ParameterDefinition</text>
<polyline fill="none" stroke="black" points="229.88,-168.25 367.38,-168.25"/>
<text xml:space="preserve" text-anchor="start" x="237.88" y="-156.65" font-family="Times,serif" font-size="8.00">+description : ivoa:string</text>
<text xml:space="preserve" text-anchor="start" x="237.88" y="-146.9" font-family="Times,serif" font-size="8.00">+kind : pdl:BaseParameterType</text>
<text xml:space="preserve" text-anchor="start" x="237.88" y="-137.15" font-family="Times,serif" font-size="8.00">+semantics : pdl:ParameterSemantics</text>
</a>
</g>
</g>
<!-- pdl:ParameterDefinition&#45;&gt;pdl:ParameterOrGroup -->
<g id="edge1" class="edge">
<title>pdl:ParameterDefinition&#45;&gt;pdl:ParameterOrGroup</title>
<path fill="none" stroke="red" d="M276.69,-130.81C269.13,-121.62 260.68,-111.34 253.16,-102.19"/>
<polygon fill="none" stroke="red" points="256.02,-100.17 246.97,-94.67 250.62,-104.61 256.02,-100.17"/>
</g>
<!-- pdl:ParameterGroup -->
<g id="node5" class="node">
<title>pdl:ParameterGroup</title>
<g id="a_node5"><a xlink:href="../pdl/ParameterGroup" xlink:title="{ParameterGroup}">
<polygon fill="#8dd3c7" stroke="black" points="199.62,-234.25 199.62,-270.25 269.62,-270.25 269.62,-234.25 199.62,-234.25"/>
<text xml:space="preserve" text-anchor="middle" x="234.62" y="-249.65" font-family="Times,serif" font-size="8.00">ParameterGroup</text>
</a>
</g>
</g>
<!-- pdl:ParameterGroup&#45;&gt;pdl:ParameterOrGroup -->
<g id="edge2" class="edge">
<title>pdl:ParameterGroup&#45;&gt;pdl:ParameterOrGroup</title>
<path fill="none" stroke="red" d="M229.8,-233.83C226.48,-220.89 222.36,-202.74 220.62,-186.5 217.98,-161.75 218.15,-155.27 220.62,-130.5 221.49,-121.88 223.09,-112.61 224.82,-104.2"/>
<polygon fill="none" stroke="red" points="228.22,-105.05 226.95,-94.53 221.38,-103.54 228.22,-105.05"/>
</g>
<!-- pdl:ParameterGroup&#45;&gt;pdl:ParameterDefinition -->
<g id="edge3" class="edge">
<title>pdl:ParameterGroup&#45;&gt;pdl:ParameterDefinition</title>
<path fill="none" stroke="blue" d="M254.03,-223.43C260.17,-214.63 267.05,-204.76 273.54,-195.47"/>
<polygon fill="blue" stroke="blue" points="254.04,-223.41 253.89,-230.62 247.18,-233.25 247.33,-226.04 254.04,-223.41"/>
<polygon fill="blue" stroke="blue" points="279.15,-187.42 277.12,-198.2 276.99,-190.52 273.43,-195.62 273.43,-195.62 273.43,-195.62 276.99,-190.52 269.74,-193.05 279.15,-187.42"/>
<text xml:space="preserve" text-anchor="middle" x="280.88" y="-206.25" font-family="Times,serif" font-size="10.00">params</text>
<text xml:space="preserve" text-anchor="middle" x="272.35" y="-188.17" font-family="Times,serif" font-size="10.00">1..*</text>
</g>
</g>
</svg>
